<?xml version="1.0" encoding="UTF-8" standalone="no"?>
<!DOCTYPE svg PUBLIC "-//W3C//DTD SVG 1.1//EN" "http://www.w3.org/Graphics/SVG/1.1/DTD/svg11.dtd">
<svg xmlns="http://www.w3.org/2000/svg" version="1.1" viewBox="0.00 0.00 786.00 472.00">
<g stroke-width="2.00" fill="none" stroke-linecap="butt">
<path stroke="#78a1be" vector-effect="non-scaling-stroke" d="
  M 421.05 85.14
  L 420.87 86.49
  Q 420.80 87.01 420.30 87.19
  L 393.97 96.44
  A 2.34 2.31 44.2 0 1 392.50 96.45
  Q 378.49 91.94 364.88 87.36
  Q 363.17 86.79 363.45 85.25"
/>
<path stroke="#78a1be" vector-effect="non-scaling-stroke" d="
  M 456.78 151.00
  Q 445.97 146.00 433.76 145.21
  C 426.40 144.73 418.87 146.19 414.48 152.29
  Q 405.07 165.38 404.76 183.05
  Q 404.50 197.29 406.58 208.68
  Q 406.70 209.34 406.07 209.54
  L 393.87 213.40
  Q 393.30 213.58 392.74 213.40
  L 378.07 208.74
  A 0.43 0.43 0.0 0 1 377.78 208.25
  Q 380.20 194.62 379.46 180.28
  Q 378.68 165.25 370.35 152.92
  Q 365.45 145.69 355.36 145.26
  Q 347.68 144.94 340.01 146.82
  Q 333.03 148.52 327.75 150.61"
/>
<path stroke="#78a1be" vector-effect="non-scaling-stroke" d="
  M 446.03 181.35
  L 438.71 174.78
  Q 438.04 174.17 438.47 174.97
  Q 441.42 180.44 442.30 186.93"
/>
<path stroke="#78a1be" vector-effect="non-scaling-stroke" d="
  M 438.74 191.98
  C 436.76 186.46 433.02 182.56 428.45 179.48
  Q 427.49 178.83 427.73 179.96
  Q 430.22 191.72 425.38 202.28
  Q 424.85 203.44 426.01 202.92
  Q 426.45 202.72 427.12 202.79"
/>
<path stroke="#78a1be" vector-effect="non-scaling-stroke" d="
  M 341.82 186.51
  L 345.72 175.23
  Q 346.08 174.19 345.27 174.93
  L 338.48 181.21"
/>
<path stroke="#bae2df" vector-effect="non-scaling-stroke" d="
  M 390.70 128.20
  Q 390.24 128.30 390.24 127.83
  C 390.23 121.67 388.85 112.01 384.26 107.21
  C 376.54 99.13 363.91 98.77 354.96 104.40
  C 342.41 112.29 341.04 130.07 351.42 140.27
  C 358.40 147.13 373.97 145.86 382.52 144.61
  A 0.80 0.80 0.0 0 1 383.37 145.09
  Q 386.23 151.82 392.70 156.33
  A 0.81 0.81 0.0 0 0 393.62 156.33
  Q 400.13 151.64 402.87 145.09
  Q 403.12 144.50 403.75 144.59
  Q 414.29 146.16 423.49 145.05
  Q 429.27 144.35 432.68 142.00
  C 441.26 136.08 444.13 124.03 439.93 114.44
  C 433.77 100.36 415.47 96.09 403.56 105.84
  C 397.64 110.68 396.21 120.64 396.04 127.90
  Q 396.03 128.41 395.54 128.29
  Q 393.00 127.69 390.70 128.20"
/>
<path stroke="#9d9ea9" vector-effect="non-scaling-stroke" d="
  M 374.61 119.10
  C 367.52 113.02 357.25 122.13 363.13 130.00
  C 365.80 133.58 372.64 132.61 376.47 131.92
  Q 376.97 131.83 376.99 131.32
  C 377.13 127.60 377.53 121.60 374.61 119.10"
/>
<path stroke="#9d9ea9" vector-effect="non-scaling-stroke" d="
  M 410.15 123.39
  Q 409.46 127.57 409.89 131.32
  Q 409.95 131.84 410.46 131.93
  C 415.58 132.88 423.23 133.82 425.11 127.40
  C 428.17 116.94 411.90 112.77 410.15 123.39"
/>
<path stroke="#78a1be" vector-effect="non-scaling-stroke" d="
  M 356.35 201.74
  L 358.26 202.46
  Q 358.89 202.69 358.68 202.05
  C 357.69 198.99 356.56 195.95 356.10 192.77
  Q 355.22 186.75 356.59 180.02
  Q 356.87 178.70 355.78 179.50
  C 351.70 182.49 346.95 186.75 345.85 191.90"
/>
<path stroke="#78a1be" vector-effect="non-scaling-stroke" d="
  M 370.76 198.22
  Q 367.89 190.66 366.88 181.85
  Q 366.77 180.91 366.35 181.76
  Q 361.13 192.35 362.07 203.23
  A 0.69 0.69 0.0 0 0 362.55 203.83
  L 375.52 207.94
  Q 376.35 208.21 375.88 207.47
  C 374.06 204.61 371.96 201.39 370.76 198.22"
/>
<path stroke="#78a1be" vector-effect="non-scaling-stroke" d="
  M 414.43 195.82
  C 412.98 200.35 410.44 204.46 407.87 208.43
  Q 407.44 209.08 408.19 208.85
  L 421.28 204.72
  A 1.74 1.73 82.8 0 0 422.49 203.15
  Q 423.00 191.75 417.84 181.48
  Q 417.60 181.00 417.54 181.53
  Q 416.76 188.54 414.43 195.82"
/>
</g>
<path fill="#7b7ebc" d="
  M 421.05 85.14
  L 420.87 86.49
  Q 420.80 87.01 420.30 87.19
  L 393.97 96.44
  A 2.34 2.31 44.2 0 1 392.50 96.45
  Q 378.49 91.94 364.88 87.36
  Q 363.17 86.79 363.45 85.25
  L 363.47 77.23
  A 0.59 0.59 0.0 0 0 363.02 76.66
  L 343.01 72.07
  Q 341.59 71.74 343.00 71.39
  L 391.73 59.36
  Q 392.30 59.22 392.87 59.35
  L 443.51 71.44
  Q 444.79 71.75 443.50 72.04
  L 421.58 76.89
  Q 421.03 77.01 421.03 77.57
  L 421.05 85.14
  Z"
/>
<path fill="#75c4bf" d="
  M 363.45 85.25
  Q 363.17 86.79 364.88 87.36
  Q 378.49 91.94 392.50 96.45
  A 2.34 2.31 44.2 0 0 393.97 96.44
  L 420.30 87.19
  Q 420.80 87.01 420.87 86.49
  L 421.05 85.14
  C 432.47 81.37 443.03 75.98 453.17 69.64
  Q 453.58 69.38 453.92 69.74
  L 456.59 72.51
  A 0.72 0.71 41.7 0 1 456.65 73.43
  Q 449.61 82.99 438.97 88.44
  Q 437.01 89.44 435.78 91.36
  Q 435.47 91.83 436.03 91.89
  C 446.26 92.98 452.99 87.57 460.31 81.50
  Q 461.32 80.67 461.01 81.94
  C 459.16 89.57 457.24 96.45 451.76 102.30
  Q 451.44 102.64 451.70 103.02
  Q 454.01 106.43 455.99 110.10
  Q 458.86 115.38 459.26 121.51
  Q 460.25 136.77 456.78 151.00
  Q 445.97 146.00 433.76 145.21
  C 426.40 144.73 418.87 146.19 414.48 152.29
  Q 405.07 165.38 404.76 183.05
  Q 404.50 197.29 406.58 208.68
  Q 406.70 209.34 406.07 209.54
  L 393.87 213.40
  Q 393.30 213.58 392.74 213.40
  L 378.07 208.74
  A 0.43 0.43 0.0 0 1 377.78 208.25
  Q 380.20 194.62 379.46 180.28
  Q 378.68 165.25 370.35 152.92
  Q 365.45 145.69 355.36 145.26
  Q 347.68 144.94 340.01 146.82
  Q 333.03 148.52 327.75 150.61
  Q 324.56 137.12 325.07 123.51
  C 325.35 115.90 328.24 109.62 331.91 103.19
  A 0.82 0.81 -50.8 0 0 331.82 102.26
  C 326.50 96.13 324.50 89.91 322.71 82.08
  Q 322.37 80.57 323.53 81.59
  C 330.47 87.63 338.89 93.86 348.80 91.58
  Q 350.14 91.27 348.89 90.68
  C 339.83 86.39 332.67 81.05 326.88 73.20
  Q 326.51 72.71 326.93 72.26
  L 329.43 69.58
  Q 329.90 69.07 330.49 69.45
  Q 345.99 79.29 363.45 85.25
  Z
  M 390.70 128.20
  Q 390.24 128.30 390.24 127.83
  C 390.23 121.67 388.85 112.01 384.26 107.21
  C 376.54 99.13 363.91 98.77 354.96 104.40
  C 342.41 112.29 341.04 130.07 351.42 140.27
  C 358.40 147.13 373.97 145.86 382.52 144.61
  A 0.80 0.80 0.0 0 1 383.37 145.09
  Q 386.23 151.82 392.70 156.33
  A 0.81 0.81 0.0 0 0 393.62 156.33
  Q 400.13 151.64 402.87 145.09
  Q 403.12 144.50 403.75 144.59
  Q 414.29 146.16 423.49 145.05
  Q 429.27 144.35 432.68 142.00
  C 441.26 136.08 444.13 124.03 439.93 114.44
  C 433.77 100.36 415.47 96.09 403.56 105.84
  C 397.64 110.68 396.21 120.64 396.04 127.90
  Q 396.03 128.41 395.54 128.29
  Q 393.00 127.69 390.70 128.20
  Z"
/>
<path fill="#ffffff" d="
  M 396.04 127.90
  C 396.21 120.64 397.64 110.68 403.56 105.84
  C 415.47 96.09 433.77 100.36 439.93 114.44
  C 444.13 124.03 441.26 136.08 432.68 142.00
  Q 429.27 144.35 423.49 145.05
  Q 414.29 146.16 403.75 144.59
  Q 403.12 144.50 402.87 145.09
  Q 400.13 151.64 393.62 156.33
  A 0.81 0.81 0.0 0 1 392.70 156.33
  Q 386.23 151.82 383.37 145.09
  A 0.80 0.80 0.0 0 0 382.52 144.61
  C 373.97 145.86 358.40 147.13 351.42 140.27
  C 341.04 130.07 342.41 112.29 354.96 104.40
  C 363.91 98.77 376.54 99.13 384.26 107.21
  C 388.85 112.01 390.23 121.67 390.24 127.83
  Q 390.24 128.30 390.70 128.20
  Q 393.00 127.69 395.54 128.29
  Q 396.03 128.41 396.04 127.90
  Z
  M 374.61 119.10
  C 367.52 113.02 357.25 122.13 363.13 130.00
  C 365.80 133.58 372.64 132.61 376.47 131.92
  Q 376.97 131.83 376.99 131.32
  C 377.13 127.60 377.53 121.60 374.61 119.10
  Z
  M 410.15 123.39
  Q 409.46 127.57 409.89 131.32
  Q 409.95 131.84 410.46 131.93
  C 415.58 132.88 423.23 133.82 425.11 127.40
  C 428.17 116.94 411.90 112.77 410.15 123.39
  Z"
/>
<path fill="#3b3c52" d="
  M 363.13 130.00
  C 357.25 122.13 367.52 113.02 374.61 119.10
  C 377.53 121.60 377.13 127.60 376.99 131.32
  Q 376.97 131.83 376.47 131.92
  C 372.64 132.61 365.80 133.58 363.13 130.00
  Z"
/>
<path fill="#3b3c52" d="
  M 410.15 123.39
  C 411.90 112.77 428.17 116.94 425.11 127.40
  C 423.23 133.82 415.58 132.88 410.46 131.93
  Q 409.95 131.84 409.89 131.32
  Q 409.46 127.57 410.15 123.39
  Z"
/>
<path fill="#7b7ebc" d="
  M 456.78 151.00
  Q 456.40 156.98 456.45 162.25
  Q 456.47 164.74 454.13 170.68
  Q 451.72 176.78 448.36 182.71
  A 0.41 0.41 0.0 0 1 447.73 182.82
  L 446.03 181.35
  L 438.71 174.78
  Q 438.04 174.17 438.47 174.97
  Q 441.42 180.44 442.30 186.93
  L 440.30 197.59
  Q 440.16 198.36 439.99 197.59
  L 438.74 191.98
  C 436.76 186.46 433.02 182.56 428.45 179.48
  Q 427.49 178.83 427.73 179.96
  Q 430.22 191.72 425.38 202.28
  Q 424.85 203.44 426.01 202.92
  Q 426.45 202.72 427.12 202.79
  L 483.48 184.95
  Q 483.69 184.88 483.75 185.09
  L 485.34 190.10
  Q 485.38 190.22 485.26 190.26
  L 393.73 219.33
  Q 393.30 219.47 392.88 219.33
  L 301.43 190.29
  Q 301.17 190.20 301.25 189.94
  L 302.79 185.06
  Q 302.85 184.88 303.03 184.94
  L 343.25 197.71
  Q 343.73 197.86 343.64 197.37
  L 341.82 186.51
  L 345.72 175.23
  Q 346.08 174.19 345.27 174.93
  L 338.48 181.21
  L 336.74 182.71
  Q 336.32 183.07 336.02 182.60
  Q 329.59 172.25 328.09 163.89
  Q 327.54 160.85 327.75 150.61
  Q 333.03 148.52 340.01 146.82
  Q 347.68 144.94 355.36 145.26
  Q 365.45 145.69 370.35 152.92
  Q 378.68 165.25 379.46 180.28
  Q 380.20 194.62 377.78 208.25
  A 0.43 0.43 0.0 0 0 378.07 208.74
  L 392.74 213.40
  Q 393.30 213.58 393.87 213.40
  L 406.07 209.54
  Q 406.70 209.34 406.58 208.68
  Q 404.50 197.29 404.76 183.05
  Q 405.07 165.38 414.48 152.29
  C 418.87 146.19 426.40 144.73 433.76 145.21
  Q 445.97 146.00 456.78 151.00
  Z
  M 345.85 191.90
  Q 344.75 194.79 344.81 197.67
  Q 344.83 198.18 345.31 198.33
  L 356.35 201.74
  L 358.26 202.46
  Q 358.89 202.69 358.68 202.05
  C 357.69 198.99 356.56 195.95 356.10 192.77
  Q 355.22 186.75 356.59 180.02
  Q 356.87 178.70 355.78 179.50
  C 351.70 182.49 346.95 186.75 345.85 191.90
  Z
  M 370.76 198.22
  Q 367.89 190.66 366.88 181.85
  Q 366.77 180.91 366.35 181.76
  Q 361.13 192.35 362.07 203.23
  A 0.69 0.69 0.0 0 0 362.55 203.83
  L 375.52 207.94
  Q 376.35 208.21 375.88 207.47
  C 374.06 204.61 371.96 201.39 370.76 198.22
  Z
  M 414.43 195.82
  C 412.98 200.35 410.44 204.46 407.87 208.43
  Q 407.44 209.08 408.19 208.85
  L 421.28 204.72
  A 1.74 1.73 82.8 0 0 422.49 203.15
  Q 423.00 191.75 417.84 181.48
  Q 417.60 181.00 417.54 181.53
  Q 416.76 188.54 414.43 195.82
  Z"
/>
<path fill="#75c4bf" d="
  M 341.82 186.51
  L 338.48 181.21
  L 345.27 174.93
  Q 346.08 174.19 345.72 175.23
  L 341.82 186.51
  Z"
/>
<path fill="#75c4bf" d="
  M 446.03 181.35
  L 442.30 186.93
  Q 441.42 180.44 438.47 174.97
  Q 438.04 174.17 438.71 174.78
  L 446.03 181.35
  Z"
/>
<path fill="#75c4bf" d="
  M 356.35 201.74
  Q 350.57 197.47 345.85 191.90
  C 346.95 186.75 351.70 182.49 355.78 179.50
  Q 356.87 178.70 356.59 180.02
  Q 355.22 186.75 356.10 192.77
  C 356.56 195.95 357.69 198.99 358.68 202.05
  Q 358.89 202.69 358.26 202.46
  L 356.35 201.74
  Z"
/>
<path fill="#75c4bf" d="
  M 438.74 191.98
  L 427.12 202.79
  Q 426.45 202.72 426.01 202.92
  Q 424.85 203.44 425.38 202.28
  Q 430.22 191.72 427.73 179.96
  Q 427.49 178.83 428.45 179.48
  C 433.02 182.56 436.76 186.46 438.74 191.98
  Z"
/>
<path fill="#75c4bf" d="
  M 370.76 198.22
  C 371.96 201.39 374.06 204.61 375.88 207.47
  Q 376.35 208.21 375.52 207.94
  L 362.55 203.83
  A 0.69 0.69 0.0 0 1 362.07 203.23
  Q 361.13 192.35 366.35 181.76
  Q 366.77 180.91 366.88 181.85
  Q 367.89 190.66 370.76 198.22
  Z"
/>
<path fill="#75c4bf" d="
  M 414.43 195.82
  Q 416.76 188.54 417.54 181.53
  Q 417.60 181.00 417.84 181.48
  Q 423.00 191.75 422.49 203.15
  A 1.74 1.73 82.8 0 1 421.28 204.72
  L 408.19 208.85
  Q 407.44 209.08 407.87 208.43
  C 410.44 204.46 412.98 200.35 414.43 195.82
  Z"
/>
<path fill="#7b7ebc" d="
  M 408.81 225.65
  C 403.63 240.36 383.55 239.91 378.03 225.73
  Q 377.82 225.19 377.27 225.01
  L 286.70 196.25
  A 0.22 0.22 0.0 0 1 286.56 195.97
  L 288.18 191.17
  A 0.31 0.30 17.5 0 1 288.56 190.98
  L 392.80 224.09
  Q 393.31 224.25 393.82 224.09
  L 496.98 191.32
  Q 497.20 191.25 497.27 191.46
  L 498.86 196.38
  Q 498.92 196.57 498.73 196.63
  L 409.53 224.96
  Q 408.99 225.13 408.81 225.65
  Z"
/>
<path fill="#7b7ebc" d="
  M 431.89 332.01
  Q 428.02 323.21 429.46 312.42
  C 431.43 297.63 442.11 288.68 457.06 290.33
  Q 475.71 292.39 478.72 312.40
  C 480.69 325.56 475.93 341.28 461.32 344.68
  C 449.37 347.46 437.05 343.74 431.89 332.01
  Z
  M 436.68 313.17
  C 434.69 327.72 441.35 341.74 458.38 338.65
  C 464.34 337.57 468.84 332.85 470.50 327.18
  C 473.77 315.97 471.65 298.33 456.62 296.85
  C 445.15 295.72 438.20 302.03 436.68 313.17
  Z"
/>
<path fill="#7b7ebc" d="
  M 514.82 297.73
  Q 507.54 295.36 501.00 298.09
  C 490.68 302.41 489.05 316.34 491.55 326.10
  C 493.80 334.91 500.63 339.54 509.69 339.02
  Q 521.17 338.35 524.98 326.59
  Q 525.08 326.27 525.40 326.36
  L 531.73 328.05
  Q 531.98 328.11 531.91 328.36
  C 528.14 340.71 518.41 346.31 506.03 345.46
  C 493.18 344.58 485.13 335.76 483.63 322.92
  C 481.87 307.79 487.77 292.19 504.80 290.39
  C 517.56 289.04 527.80 294.45 531.82 307.08
  Q 531.99 307.64 531.43 307.79
  L 525.63 309.32
  A 0.59 0.59 0.0 0 1 524.91 308.94
  Q 521.87 300.02 514.82 297.73
  Z"
/>
<path fill="#7b7ebc" d="
  M 151.75 337.94
  L 151.75 344.32
  Q 151.75 344.48 151.59 344.48
  L 145.00 344.50
  Q 144.75 344.50 144.75 344.25
  L 144.75 337.95
  Q 144.75 337.44 144.23 337.47
  Q 130.47 338.25 125.48 326.15
  C 122.71 319.44 123.07 309.53 127.05 303.21
  Q 132.78 294.13 144.16 295.03
  Q 144.77 295.08 144.77 294.46
  L 144.74 292.00
  Q 144.74 291.25 145.50 291.25
  L 151.00 291.25
  Q 151.75 291.25 151.75 292.00
  L 151.75 294.47
  Q 151.74 295.14 152.41 295.07
  C 168.31 293.41 174.55 308.27 172.42 321.50
  C 170.79 331.58 162.77 338.61 152.38 337.38
  Q 151.75 337.31 151.75 337.94
  Z
  M 144.78 330.60
  L 144.72 301.76
  A 0.55 0.55 0.0 0 0 144.17 301.21
  L 143.04 301.21
  A 13.59 12.30 89.9 0 0 130.77 314.82
  L 130.77 317.58
  A 13.59 12.30 89.9 0 0 143.10 331.15
  L 144.23 331.15
  A 0.55 0.55 0.0 0 0 144.78 330.60
  Z
  M 151.80 301.75
  L 151.70 330.63
  A 0.53 0.53 0.0 0 0 152.23 331.16
  L 153.29 331.16
  A 13.51 12.41 -89.8 0 0 165.74 317.69
  L 165.76 314.77
  A 13.51 12.41 -89.8 0 0 153.39 301.22
  L 152.33 301.22
  A 0.53 0.53 0.0 0 0 151.80 301.75
  Z"
/>
<path fill="#7b7ebc" d="
  M 186.05 332.21
  L 181.98 344.29
  A 0.31 0.31 0.0 0 1 181.69 344.50
  L 175.18 344.50
  A 0.31 0.31 0.0 0 1 174.89 344.09
  L 192.66 291.46
  A 0.31 0.31 0.0 0 1 192.95 291.25
  L 201.86 291.25
  A 0.31 0.31 0.0 0 1 202.15 291.46
  L 219.89 344.09
  A 0.31 0.31 0.0 0 1 219.60 344.50
  L 213.14 344.50
  A 0.31 0.31 0.0 0 1 212.85 344.29
  L 208.70 332.21
  A 0.31 0.31 0.0 0 0 208.41 332.00
  L 186.34 332.00
  A 0.31 0.31 0.0 0 0 186.05 332.21
  Z
  M 197.62 299.60
  A 0.32 0.32 0.0 0 0 197.02 299.60
  L 188.36 325.33
  A 0.32 0.32 0.0 0 0 188.67 325.75
  L 206.06 325.75
  A 0.32 0.32 0.0 0 0 206.37 325.33
  L 197.62 299.60
  Z"
/>
<path fill="#7b7ebc" d="
  M 233.25 325.54
  L 233.25 344.25
  A 0.25 0.25 0.0 0 1 233.00 344.50
  L 226.50 344.49
  Q 226.25 344.49 226.25 344.25
  L 226.25 291.54
  A 0.25 0.25 0.0 0 1 226.50 291.29
  Q 237.60 291.15 248.13 291.32
  C 259.64 291.50 265.75 299.49 264.64 310.28
  C 263.86 317.95 259.06 323.77 251.22 324.59
  Q 244.21 325.32 233.92 324.90
  Q 233.25 324.87 233.25 325.54
  Z
  M 233.29 297.99
  L 233.19 318.15
  A 0.32 0.32 0.0 0 0 233.51 318.47
  L 247.87 318.54
  A 9.87 9.86 -89.7 0 0 257.78 308.72
  L 257.78 307.66
  A 9.87 9.86 -89.7 0 0 247.97 297.74
  L 233.61 297.67
  A 0.32 0.32 0.0 0 0 233.29 297.99
  Z"
/>
<path fill="#7b7ebc" d="
  M 278.50 308.33
  L 278.50 344.25
  A 0.25 0.25 0.0 0 1 278.25 344.50
  L 272.25 344.49
  A 0.25 0.24 0.0 0 1 272.00 344.25
  L 272.00 291.75
  Q 272.00 291.25 272.50 291.25
  L 277.48 291.25
  Q 278.09 291.25 278.36 291.81
  L 297.84 332.54
  A 0.35 0.35 0.0 0 0 298.47 332.54
  L 317.82 291.83
  Q 318.10 291.25 318.75 291.25
  L 324.00 291.25
  Q 324.50 291.25 324.50 291.75
  L 324.50 344.25
  A 0.25 0.25 0.0 0 1 324.25 344.50
  L 318.00 344.50
  Q 317.75 344.50 317.75 344.25
  L 317.75 307.93
  Q 317.75 306.65 317.21 307.81
  L 300.24 343.92
  Q 299.97 344.50 299.32 344.50
  L 296.81 344.50
  Q 296.30 344.50 296.09 344.04
  L 279.23 308.17
  Q 278.50 306.61 278.50 308.33
  Z"
/>
<path fill="#7b7ebc" d="
  M 341.25 298.06
  L 341.25 344.19
  A 0.31 0.31 0.0 0 1 340.94 344.50
  L 334.81 344.50
  A 0.31 0.31 0.0 0 1 334.50 344.19
  L 334.50 291.56
  A 0.31 0.31 0.0 0 1 334.81 291.25
  L 375.94 291.25
  A 0.31 0.31 0.0 0 1 376.25 291.56
  L 376.25 344.19
  A 0.31 0.31 0.0 0 1 375.94 344.50
  L 369.81 344.50
  A 0.31 0.31 0.0 0 1 369.50 344.19
  L 369.50 298.06
  A 0.31 0.31 0.0 0 0 369.19 297.75
  L 341.56 297.75
  A 0.31 0.31 0.0 0 0 341.25 298.06
  Z"
/>
<path fill="#7b7ebc" d="
  M 393.25 325.54
  L 393.25 344.25
  Q 393.25 344.50 393.00 344.50
  L 386.75 344.50
  A 0.25 0.25 0.0 0 1 386.50 344.25
  L 386.50 291.80
  Q 386.50 291.19 387.11 291.20
  Q 394.88 291.36 403.22 291.21
  Q 412.15 291.05 415.65 292.59
  Q 423.04 295.85 424.58 304.20
  C 426.64 315.38 420.53 324.53 408.70 324.89
  Q 401.63 325.10 393.84 324.96
  Q 393.25 324.95 393.25 325.54
  Z
  M 393.29 298.00
  L 393.21 318.16
  A 0.34 0.34 0.0 0 0 393.55 318.50
  L 407.91 318.55
  A 10.04 10.02 0.2 0 0 417.99 308.56
  L 417.99 307.76
  A 10.04 10.02 0.2 0 0 407.99 297.71
  L 393.63 297.66
  A 0.34 0.34 0.0 0 0 393.29 298.00
  Z"
/>
<path fill="#7b7ebc" d="
  M 570.91 316.62
  C 576.79 319.49 579.35 325.60 578.32 331.89
  Q 576.30 344.30 562.04 344.46
  Q 550.53 344.60 539.98 344.45
  A 0.24 0.23 1.3 0 1 539.75 344.22
  L 539.75 291.78
  Q 539.75 291.19 540.34 291.21
  Q 548.55 291.38 557.82 291.19
  Q 564.89 291.04 568.54 293.04
  C 576.29 297.28 578.39 307.05 572.98 314.01
  C 572.36 314.80 571.51 315.29 570.80 315.99
  Q 570.41 316.38 570.91 316.62
  Z
  M 546.74 298.00
  L 546.76 313.02
  A 0.26 0.26 0.0 0 0 547.02 313.28
  L 561.07 313.25
  A 7.91 7.72 -0.1 0 0 568.97 305.52
  L 568.97 305.42
  A 7.91 7.72 -0.1 0 0 561.05 297.71
  L 547.00 297.74
  A 0.26 0.26 0.0 0 0 546.74 298.00
  Z
  M 546.78 319.97
  L 546.72 337.71
  A 0.27 0.27 0.0 0 0 546.99 337.98
  L 561.78 338.03
  A 9.70 8.91 0.2 0 0 571.51 329.15
  L 571.51 328.69
  A 9.70 8.91 0.2 0 0 561.84 319.75
  L 547.05 319.70
  A 0.27 0.27 0.0 0 0 546.78 319.97
  Z"
/>
<path fill="#7b7ebc" d="
  M 592.50 298.10
  L 592.50 313.65
  A 0.35 0.35 0.0 0 0 592.85 314.00
  L 614.90 314.00
  A 0.35 0.35 0.0 0 1 615.25 314.35
  L 615.25 320.15
  A 0.35 0.35 0.0 0 1 614.90 320.50
  L 592.85 320.50
  A 0.35 0.35 0.0 0 0 592.50 320.85
  L 592.50 337.65
  A 0.35 0.35 0.0 0 0 592.85 338.00
  L 619.15 338.00
  A 0.35 0.35 0.0 0 1 619.50 338.35
  L 619.49 344.15
  A 0.35 0.35 0.0 0 1 619.14 344.50
  L 586.10 344.50
  A 0.35 0.35 0.0 0 1 585.75 344.15
  L 585.75 291.60
  A 0.35 0.35 0.0 0 1 586.10 291.25
  L 619.15 291.25
  A 0.35 0.35 0.0 0 1 619.50 291.60
  L 619.50 297.40
  A 0.35 0.35 0.0 0 1 619.15 297.75
  L 592.85 297.75
  A 0.35 0.35 0.0 0 0 592.50 298.10
  Z"
/>
<path fill="#7b7ebc" d="
  M 648.75 298.06
  L 648.75 344.19
  A 0.31 0.31 0.0 0 1 648.44 344.50
  L 642.31 344.50
  A 0.31 0.31 0.0 0 1 642.00 344.19
  L 642.00 298.06
  A 0.31 0.31 0.0 0 0 641.69 297.75
  L 624.06 297.75
  A 0.31 0.31 0.0 0 1 623.75 297.44
  L 623.75 291.56
  A 0.31 0.31 0.0 0 1 624.06 291.25
  L 666.69 291.25
  A 0.31 0.31 0.0 0 1 667.00 291.56
  L 667.00 297.44
  A 0.31 0.31 0.0 0 1 666.69 297.75
  L 649.06 297.75
  A 0.31 0.31 0.0 0 0 648.75 298.06
  Z"
/>
<path fill="#7b7ebc" d="
  M 499.96 366.10
  C 500.64 369.27 504.69 368.96 505.39 365.78
  A 0.36 0.36 0.0 0 1 505.74 365.49
  L 508.97 365.51
  Q 509.20 365.51 509.20 365.75
  Q 509.16 368.00 507.86 369.41
  Q 502.90 374.82 497.52 369.75
  Q 496.24 368.55 496.04 366.02
  Q 496.00 365.49 496.53 365.50
  L 499.23 365.51
  Q 499.83 365.51 499.96 366.10
  Z"
/>
<path fill="#7b7ebc" d="
  M 133.2989 386.7051
  A 14.45 14.45 0.0 0 1 118.7986 401.1046
  L 116.1186 401.0952
  A 14.45 14.45 0.0 0 1 101.7191 386.5949
  L 101.7411 380.2949
  A 14.45 14.45 0.0 0 1 116.2414 365.8954
  L 118.9214 365.9048
  A 14.45 14.45 0.0 0 1 133.3209 380.4051
  L 133.2989 386.7051
  Z
  M 127.47 390.71
  C 131.31 381.35 127.55 367.75 114.70 370.23
  C 105.05 372.10 103.89 387.76 109.69 393.88
  Q 113.51 397.91 119.87 396.86
  Q 125.31 395.97 127.47 390.71
  Z"
/>
<path fill="#7b7ebc" d="
  M 141.67 379.46
  C 147.49 373.89 157.10 375.53 159.99 383.47
  C 161.11 386.54 161.10 390.76 159.99 393.79
  Q 157.81 399.75 151.79 400.97
  C 143.96 402.56 137.90 398.74 136.97 390.72
  Q 136.04 382.73 137.77 376.45
  Q 139.57 369.94 145.69 367.89
  Q 149.98 366.45 157.72 365.83
  Q 157.93 365.81 157.95 366.02
  L 158.39 369.46
  A 0.33 0.32 -7.0 0 1 158.10 369.82
  Q 153.69 370.28 149.18 371.07
  Q 142.17 372.28 141.22 379.23
  Q 141.12 379.99 141.67 379.46
  Z
  M 156.11 387.25
  A 6.67 6.67 0.0 0 0 149.44 380.58
  L 148.20 380.58
  A 6.67 6.67 0.0 0 0 141.53 387.25
  L 141.53 390.31
  A 6.67 6.67 0.0 0 0 148.20 396.98
  L 149.44 396.98
  A 6.67 6.67 0.0 0 0 156.11 390.31
  L 156.11 387.25
  Z"
/>
<path fill="#7b7ebc" d="
  M 170.25 399.28
  L 170.25 411.75
  Q 170.25 412.00 170.00 412.00
  L 166.00 412.00
  Q 165.75 412.00 165.75 411.75
  L 165.75 375.50
  Q 165.75 375.00 166.25 375.00
  L 169.28 375.00
  Q 169.80 375.00 169.78 375.53
  L 169.73 376.52
  Q 169.69 377.26 170.30 376.84
  C 171.25 376.19 172.11 375.33 173.22 374.97
  C 194.35 368.13 194.77 406.99 173.37 400.59
  C 172.49 400.32 171.52 399.68 170.88 399.02
  Q 170.25 398.37 170.25 399.28
  Z
  M 177.1169 397.4300
  A 9.68 7.50 89.9 0 0 184.6000 387.7369
  A 9.68 7.50 89.9 0 0 177.0831 378.0700
  A 9.68 7.50 89.9 0 0 169.6000 387.7631
  A 9.68 7.50 89.9 0 0 177.1169 397.4300
  Z"
/>
<path fill="#7b7ebc" d="
  M 210.31 397.79
  Q 205.72 402.30 199.18 401.08
  Q 192.77 399.90 192.72 393.18
  C 192.69 389.94 195.59 386.92 198.49 386.17
  Q 203.53 384.85 209.59 384.26
  Q 210.51 384.17 210.41 383.26
  Q 209.95 379.36 206.73 378.63
  Q 200.25 377.15 197.86 382.56
  Q 197.75 382.80 197.50 382.73
  L 193.97 381.67
  A 0.34 0.34 0.0 0 1 193.74 381.26
  C 195.51 374.94 201.56 373.45 207.38 374.48
  Q 214.64 375.76 214.71 383.34
  Q 214.79 391.13 214.76 399.80
  Q 214.76 400.50 214.06 400.50
  L 211.24 400.50
  Q 210.73 400.50 210.74 399.99
  L 210.78 398.00
  Q 210.79 397.32 210.31 397.79
  Z
  M 208.37 388.22
  C 204.76 388.63 197.06 388.97 197.29 393.97
  C 197.38 395.88 199.58 397.45 201.36 397.52
  Q 210.10 397.84 210.31 388.52
  Q 210.33 387.92 209.72 387.96
  C 209.26 387.99 208.84 388.16 208.37 388.22
  Z"
/>
<path fill="#7b7ebc" d="
  M 237.16 387.48
  Q 239.02 388.82 239.43 390.78
  Q 241.28 399.51 232.32 401.07
  Q 223.89 402.53 218.71 395.56
  Q 218.37 395.10 218.84 394.79
  L 221.69 392.91
  Q 222.05 392.67 222.31 393.02
  Q 225.99 398.05 231.65 396.84
  Q 235.73 395.96 235.22 391.73
  Q 235.16 391.21 234.74 390.87
  C 232.33 388.89 229.80 389.11 226.88 389.29
  A 0.35 0.34 -1.6 0 1 226.51 388.95
  L 226.50 385.80
  Q 226.50 385.46 226.83 385.48
  C 229.11 385.62 234.50 385.75 234.57 382.23
  Q 234.62 379.72 232.42 378.95
  Q 227.43 377.19 222.53 381.47
  Q 222.40 381.59 222.27 381.46
  L 219.82 378.69
  Q 219.61 378.46 219.84 378.25
  Q 224.88 373.49 231.87 374.33
  C 238.40 375.11 241.70 381.65 237.09 386.82
  Q 236.76 387.19 237.16 387.48
  Z"
/>
<path fill="#7b7ebc" d="
  M 268.0751 389.8746
  A 11.17 11.17 0.0 0 1 256.9834 401.1223
  L 254.8834 401.1370
  A 11.17 11.17 0.0 0 1 243.6357 390.0453
  L 243.6049 385.6254
  A 11.17 11.17 0.0 0 1 254.6966 374.3777
  L 256.7966 374.3630
  A 11.17 11.17 0.0 0 1 268.0443 385.4547
  L 268.0751 389.8746
  Z
  M 255.8433 397.2699
  A 9.54 7.88 89.8 0 0 263.6900 387.7025
  A 9.54 7.88 89.8 0 0 255.7767 378.1901
  A 9.54 7.88 89.8 0 0 247.9300 387.7575
  A 9.54 7.88 89.8 0 0 255.8433 397.2699
  Z"
/>
<path fill="#7b7ebc" d="
  M 315.01 397.79
  Q 309.37 403.05 302.48 400.65
  C 295.56 398.24 295.75 388.81 302.76 386.40
  Q 307.27 384.84 314.41 384.30
  Q 315.04 384.25 315.04 383.61
  Q 314.98 379.51 311.44 378.63
  Q 305.11 377.06 302.50 382.60
  Q 302.40 382.81 302.19 382.74
  L 298.51 381.58
  Q 298.27 381.50 298.36 381.26
  C 300.49 374.95 306.07 373.44 312.04 374.45
  C 317.91 375.45 319.62 379.48 319.54 384.97
  Q 319.41 392.97 319.54 399.76
  Q 319.55 400.50 318.81 400.50
  L 316.00 400.50
  A 0.50 0.50 0.0 0 1 315.50 400.00
  L 315.50 398.00
  Q 315.50 397.34 315.01 397.79
  Z
  M 305.87 397.48
  C 311.96 397.97 315.20 394.11 315.01 388.48
  Q 315.00 387.99 314.52 388.03
  Q 309.55 388.45 305.40 389.67
  Q 301.60 390.79 302.07 394.37
  C 302.29 396.09 304.26 397.35 305.87 397.48
  Z"
/>
<path fill="#7b7ebc" d="
  M 353.04 389.58
  Q 354.09 397.09 360.96 397.07
  C 363.88 397.07 366.36 395.58 367.63 393.00
  Q 367.89 392.49 368.43 392.69
  L 371.63 393.87
  Q 372.31 394.12 371.96 394.75
  C 367.21 403.42 354.06 403.89 349.66 394.47
  C 347.37 389.58 347.79 382.42 351.43 378.21
  Q 356.07 372.85 364.16 374.62
  C 370.43 375.99 372.87 382.43 372.49 388.48
  Q 372.46 389.00 371.94 389.00
  L 353.55 389.00
  Q 352.96 389.00 353.04 389.58
  Z
  M 353.50 385.49
  L 367.74 385.51
  A 0.19 0.19 0.0 0 0 367.93 385.32
  L 367.93 385.20
  A 7.06 6.97 0.1 0 0 360.89 378.22
  L 360.39 378.22
  A 7.06 6.97 0.1 0 0 353.31 385.18
  L 353.31 385.30
  A 0.19 0.19 0.0 0 0 353.50 385.49
  Z"
/>
<path fill="#7b7ebc" d="
  M 579.1351 389.8746
  A 11.17 11.17 0.0 0 1 568.0434 401.1223
  L 565.9434 401.1370
  A 11.17 11.17 0.0 0 1 554.6957 390.0453
  L 554.6649 385.6254
  A 11.17 11.17 0.0 0 1 565.7566 374.3777
  L 567.8566 374.3630
  A 11.17 11.17 0.0 0 1 579.1043 385.4547
  L 579.1351 389.8746
  Z
  M 574.4333 385.5689
  A 6.92 6.92 0.0 0 0 567.5861 378.5768
  L 566.3862 378.5642
  A 6.92 6.92 0.0 0 0 559.3941 385.4114
  L 559.3467 389.9311
  A 6.92 6.92 0.0 0 0 566.1939 396.9232
  L 567.3938 396.9358
  A 6.92 6.92 0.0 0 0 574.3859 390.0886
  L 574.4333 385.5689
  Z"
/>
<path fill="#7b7ebc" d="
  M 588.75 399.29
  L 588.75 411.50
  Q 588.75 412.00 588.25 412.00
  L 584.75 412.00
  Q 584.25 412.00 584.25 411.50
  L 584.25 375.50
  A 0.50 0.50 0.0 0 1 584.75 375.00
  L 587.77 375.00
  A 0.50 0.50 0.0 0 1 588.27 375.52
  L 588.24 376.51
  Q 588.21 377.32 588.82 376.80
  Q 592.30 373.81 597.31 374.25
  C 610.62 375.40 611.13 398.21 599.06 400.95
  Q 593.34 402.24 589.30 399.02
  Q 588.75 398.58 588.75 399.29
  Z
  M 595.5600 397.4300
  A 9.68 7.50 90.0 0 0 603.0600 387.7500
  A 9.68 7.50 90.0 0 0 595.5600 378.0700
  A 9.68 7.50 90.0 0 0 588.0600 387.7500
  A 9.68 7.50 90.0 0 0 595.5600 397.4300
  Z"
/>
<path fill="#7b7ebc" d="
  M 652.12 397.71
  C 649.32 400.56 646.48 401.63 642.49 401.26
  C 632.24 400.31 631.96 387.78 641.75 385.79
  Q 646.76 384.77 651.67 384.19
  Q 652.24 384.13 652.25 383.55
  C 652.30 381.12 650.75 378.87 648.21 378.48
  Q 641.90 377.50 639.88 382.42
  A 0.49 0.49 0.0 0 1 639.29 382.70
  L 635.97 381.69
  Q 635.53 381.55 635.67 381.12
  Q 637.50 375.43 643.28 374.45
  C 651.35 373.09 656.95 376.27 656.80 385.02
  Q 656.67 392.45 656.78 399.75
  Q 656.80 400.49 656.06 400.50
  L 653.50 400.50
  Q 652.74 400.50 652.75 399.75
  L 652.76 397.98
  Q 652.77 397.05 652.12 397.71
  Z
  M 651.63 388.03
  Q 647.16 388.47 642.96 389.54
  C 637.44 390.94 638.30 397.69 643.77 397.58
  Q 651.98 397.40 652.29 388.65
  Q 652.31 387.97 651.63 388.03
  Z"
/>
<path fill="#7b7ebc" d="
  M 290.79 387.72
  Q 293.95 389.09 294.27 392.37
  C 294.94 399.27 290.24 400.81 284.31 400.57
  Q 278.89 400.36 273.89 400.56
  A 0.61 0.61 0.0 0 1 273.25 399.95
  L 273.25 375.54
  Q 273.25 375.00 273.79 375.00
  Q 279.47 374.99 285.64 375.03
  Q 291.88 375.07 292.92 380.48
  Q 293.67 384.38 290.69 387.14
  Q 290.29 387.51 290.79 387.72
  Z
  M 277.75 378.77
  L 277.73 385.71
  A 0.28 0.28 0.0 0 0 278.01 385.99
  L 283.74 386.01
  A 4.67 3.55 0.2 0 0 288.42 382.48
  L 288.42 382.08
  A 4.67 3.55 0.2 0 0 283.76 378.51
  L 278.03 378.49
  A 0.28 0.28 0.0 0 0 277.75 378.77
  Z
  M 277.74 389.80
  L 277.74 396.76
  A 0.27 0.27 0.0 0 0 278.01 397.03
  L 284.69 397.03
  A 5.05 3.55 -0.0 0 0 289.74 393.48
  L 289.74 393.08
  A 5.05 3.55 0.0 0 0 284.69 389.53
  L 278.01 389.53
  A 0.27 0.27 0.0 0 0 277.74 389.80
  Z"
/>
<path fill="#7b7ebc" d="
  M 331.91 379.01
  L 323.58 378.99
  A 0.34 0.34 0.0 0 1 323.24 378.65
  L 323.25 375.34
  A 0.34 0.34 0.0 0 1 323.59 375.00
  L 345.16 375.00
  A 0.34 0.34 0.0 0 1 345.50 375.34
  L 345.50 378.66
  A 0.34 0.34 0.0 0 1 345.16 379.00
  L 336.84 379.00
  A 0.34 0.34 0.0 0 0 336.50 379.34
  L 336.50 400.15
  A 0.34 0.34 0.0 0 1 336.16 400.49
  L 332.59 400.50
  A 0.34 0.34 0.0 0 1 332.25 400.16
  L 332.25 379.35
  A 0.34 0.34 0.0 0 0 331.91 379.01
  Z"
/>
<path fill="#7b7ebc" d="
  M 384.81 379.23
  Q 384.52 385.26 383.61 392.37
  C 383.00 397.11 382.06 402.51 375.51 400.62
  Q 375.24 400.55 375.24 400.27
  L 375.25 397.00
  Q 375.25 396.77 375.48 396.80
  Q 378.42 397.13 378.96 393.92
  Q 380.41 385.25 380.73 375.55
  A 0.56 0.56 0.0 0 1 381.29 375.00
  L 398.50 375.00
  Q 399.00 375.00 399.00 375.50
  L 399.00 400.12
  Q 399.00 400.49 398.63 400.49
  L 395.00 400.50
  Q 394.50 400.51 394.50 400.00
  L 394.50 379.25
  Q 394.50 379.00 394.25 379.00
  L 385.04 379.00
  Q 384.82 379.00 384.81 379.23
  Z"
/>
<path fill="#7b7ebc" d="
  M 410.35 384.03
  Q 415.00 383.85 419.50 384.44
  C 423.66 384.98 426.13 388.08 426.09 392.31
  C 426.02 399.10 421.04 400.80 415.14 400.56
  Q 410.14 400.37 405.88 400.55
  A 0.60 0.60 0.0 0 1 405.25 399.95
  L 405.25 375.50
  Q 405.25 375.00 405.75 375.00
  L 409.25 375.00
  Q 409.75 375.00 409.75 375.50
  L 409.75 383.46
  Q 409.75 384.06 410.35 384.03
  Z
  M 409.76 388.00
  L 409.74 396.70
  A 0.26 0.26 0.0 0 0 410.00 396.96
  L 416.24 396.97
  A 5.28 4.20 0.1 0 0 421.53 392.78
  L 421.53 391.96
  A 5.28 4.20 0.1 0 0 416.26 387.75
  L 410.02 387.74
  A 0.26 0.26 0.0 0 0 409.76 388.00
  Z"
/>
<path fill="#7b7ebc" d="
  M 434.75 390.05
  L 434.75 400.20
  A 0.30 0.30 0.0 0 1 434.45 400.50
  L 430.55 400.49
  A 0.30 0.30 0.0 0 1 430.25 400.19
  L 430.25 375.30
  A 0.30 0.30 0.0 0 1 430.55 375.00
  L 434.45 375.00
  A 0.30 0.30 0.0 0 1 434.75 375.30
  L 434.75 385.20
  A 0.30 0.30 0.0 0 0 435.05 385.50
  L 447.70 385.50
  A 0.30 0.30 0.0 0 0 448.00 385.20
  L 448.00 375.30
  A 0.30 0.30 0.0 0 1 448.30 375.00
  L 452.20 375.00
  A 0.30 0.30 0.0 0 1 452.50 375.30
  L 452.50 400.20
  A 0.30 0.30 0.0 0 1 452.20 400.50
  L 448.30 400.50
  A 0.30 0.30 0.0 0 1 448.00 400.20
  L 448.00 390.05
  A 0.30 0.30 0.0 0 0 447.70 389.75
  L 435.05 389.75
  A 0.30 0.30 0.0 0 0 434.75 390.05
  Z"
/>
<path fill="#7b7ebc" d="
  M 463.91 384.01
  Q 466.27 384.03 469.14 384.15
  C 475.10 384.40 479.11 387.85 477.74 394.38
  Q 476.59 399.90 470.87 400.34
  Q 465.98 400.71 459.37 400.46
  Q 458.75 400.44 458.75 399.82
  L 458.75 375.25
  A 0.25 0.25 0.0 0 1 459.00 375.00
  L 463.00 375.00
  Q 463.25 375.00 463.25 375.25
  L 463.25 383.33
  Q 463.25 384.00 463.91 384.01
  Z
  M 463.26 388.00
  L 463.24 396.68
  A 0.27 0.27 0.0 0 0 463.51 396.95
  L 468.10 396.96
  A 5.38 4.40 0.1 0 0 473.49 392.57
  L 473.49 392.15
  A 5.38 4.40 0.1 0 0 468.12 387.74
  L 463.53 387.73
  A 0.27 0.27 0.0 0 0 463.26 388.00
  Z"
/>
<rect fill="#7b7ebc" x="480.75" y="375.00" width="4.24" height="25.50" rx="0.32"/>
<path fill="#7b7ebc" d="
  M 507.76 382.90
  Q 501.84 391.26 495.73 399.84
  C 494.99 400.87 493.35 400.48 492.26 400.52
  Q 491.50 400.55 491.50 399.80
  L 491.50 375.25
  Q 491.50 375.00 491.75 375.00
  L 495.51 375.01
  Q 495.75 375.01 495.75 375.26
  L 495.74 392.29
  Q 495.74 393.15 496.25 392.45
  L 508.49 375.51
  A 1.24 1.21 -71.7 0 1 509.48 375.00
  L 512.00 375.00
  Q 512.50 375.00 512.50 375.50
  L 512.50 400.00
  Q 512.50 400.51 512.00 400.50
  L 508.49 400.49
  Q 508.25 400.49 508.25 400.24
  L 508.25 383.05
  Q 508.25 382.21 507.76 382.90
  Z"
/>
<path fill="#7b7ebc" d="
  M 544.65 379.00
  L 533.10 379.00
  A 0.35 0.35 0.0 0 0 532.75 379.35
  L 532.75 400.14
  A 0.35 0.35 0.0 0 1 532.40 400.49
  L 528.86 400.50
  A 0.35 0.35 0.0 0 1 528.51 400.15
  L 528.50 375.35
  A 0.35 0.35 0.0 0 1 528.85 375.00
  L 549.15 375.00
  A 0.35 0.35 0.0 0 1 549.50 375.35
  L 549.50 400.15
  A 0.35 0.35 0.0 0 1 549.15 400.50
  L 545.35 400.50
  A 0.35 0.35 0.0 0 1 545.00 400.15
  L 545.00 379.35
  A 0.35 0.35 0.0 0 0 544.65 379.00
  Z"
/>
<path fill="#7b7ebc" d="
  M 618.86 379.00
  L 610.88 379.00
  A 0.39 0.39 0.0 0 1 610.49 378.61
  L 610.50 375.39
  A 0.39 0.39 0.0 0 1 610.89 375.00
  L 632.36 375.00
  A 0.39 0.39 0.0 0 1 632.75 375.39
  L 632.76 378.61
  A 0.39 0.39 0.0 0 1 632.37 379.00
  L 624.14 379.00
  A 0.39 0.39 0.0 0 0 623.75 379.39
  L 623.75 400.10
  A 0.39 0.39 0.0 0 1 623.36 400.49
  L 619.64 400.51
  A 0.39 0.39 0.0 0 1 619.25 400.12
  L 619.25 379.39
  A 0.39 0.39 0.0 0 0 618.86 379.00
  Z"
/>
<path fill="#7b7ebc" d="
  M 669.80 379.37
  Q 669.42 388.46 667.94 396.14
  Q 666.80 402.07 660.78 400.72
  Q 660.24 400.60 660.25 400.05
  L 660.25 397.42
  Q 660.25 396.67 661.00 396.75
  Q 661.58 396.82 662.17 396.68
  Q 662.72 396.55 663.01 396.07
  Q 663.94 394.55 664.20 392.80
  Q 665.38 384.79 665.75 375.66
  Q 665.78 375.00 666.43 375.00
  L 683.25 375.00
  A 0.75 0.75 0.0 0 1 684.00 375.75
  L 684.00 400.00
  Q 684.00 400.50 683.50 400.50
  L 680.00 400.50
  Q 679.50 400.50 679.50 400.00
  L 679.50 379.31
  Q 679.50 379.03 679.22 379.02
  Q 670.80 378.89 669.96 379.15
  Q 669.80 379.20 669.80 379.37
  Z"
/>
</svg>
